<svg xmlns="http://www.w3.org/2000/svg" viewBox="0 0 717.83979 612.95898"><defs><style>.cls-1{fill:#fff;}.cls-2{fill:#fbb034;}.cls-3,.cls-4{fill:#273691;}.cls-3{fill-rule:evenodd;}</style></defs><path class="cls-1" d="M224.69325,431.243l-.27,8.91019,15.75,75.1504,2.3399,15.1211,109.6201,43.5586,179.4931,55.8183,227.86819-69.6552,12.5186-5.3623s7.3203-1.7998,11.041-6.4795c2.2841-2.8741,40.4394-23.1602,40.4394-23.1602l-4.6806-12.1191s-3.2247-12.4805-3.2247-12.7051c0-.2256-.4492-1.9365-.4492-1.9365l5.3545-.0899v-17.3701l.29981-43.3506,20.10059-98.30949s9.1192-23.5196,16.0801-21.8389c6.959,1.6797,15.5996-6.2402,15.5996-8.4014,0-2.1592-8.6406-34.3198-13.2002-36.2392-4.5596-1.92-2.1602-28.80031-3.8398-29.5196-1.6797-.7212-14.8809-14.3999-22.7998-19.2002-7.92-4.7998-42.2403-17.2802-42.2403-17.2802l-1.501,39.6006-35.2793-14.4-1.6201-54.00091L678.29244,133.704l-4.49909,61.9209-43.91991-17.10111-.3603-77.39939-96.48049-53.8203-3.7793,19.0801,1.4404,170.6401-15.9609-38.1606-57.8399,14.1606s-48.3818-7.1011-51.08-7.1011c-2.7012,0-37.2588-4.8603-37.2588-4.8603h-52.9175l-42.6582,8.1001L253,241.56193Z" transform="translate(-169.37345 -30.14444)"/><path class="cls-2" d="M275.228,216.63953l-1.7549,2.4292a43.46193,43.46193,0,0,1,25.4702-7.9194c14.8047.3599,16.5152,1.12449,20.7002,1.6646,4.1841.5395,20.1148.4501,21.1948,12.916,8.0098-6.6612,12.7344-15.0752,18.7647-14.85011s9.8105,2.88031,12.4199,4.36421a139.45445,139.45445,0,0,0,13.4551,6.211c3.375,1.25879,8.8652,3.9145,11.4307,6.25479.8994.49421,1.4843-.40519,2.0244-1.12539.54-.7203,8.5508-10.5298,11.251-12.6451,2.6992-2.1157,6.705-4.455,13.18452-1.7998,6.47949,2.65429,15.25388,7.4698,17.27928,7.9649s8.1006,2.6992,9.4053,4.3642c1.3057,1.6656,1.7549,1.5303,2.8799,1.7115,1.125.1792,2.25-2.7012,2.6552-3.7808.4053-1.0796,2.3848-3.4204,6.5254-4.7251,4.1397-1.3047,43.1094-10.9351,43.1094-10.9351s7.4697-2.4292,10.8447-.0449c3.1954,2.3848,4.5,2.25,5.085,9.0899,2.4307.7646,2.4307-.2256,2.4307-.2256l1.8007-82.84471-2.3984-87.16219-12.959,3.7793-84.77536,50.75789-2.16114,76.13571-38.3379,14.5796-5.9385-65.877-73.977,49.6783-1.0801,27.538Z" transform="translate(-169.37345 -30.14444)"/><path class="cls-2" d="M231.05315,411.02433l.2402,1.9189s9.2998-2.5195,11.0996-2.3378c0,0,9.1206-9.3604,11.1602-11.462,2.04-2.09861,7.3203-6.8388,9.1196-6.7187.9009-.3613.8408-2.7598-.7793-3.2998-1.6201-.54011-6.7802-4.4404-6.8398-12.2412-.0601-7.79891,9.2392-32.2793,28.3198-39.2998l.3599-74.7593s-20.7451-2.48981-22.1851-20.1309c-.54-5.6245,1.8901-12.2846,4.5449-16.2446-2.25,1.57569-4.2749,5.895-4.2749,5.895s.6748-24.3896.315-24.3896c-.3599,0-5.3101.7202-5.3101.7202s-57.1499,28.3496-57.6894,33.75c-.5406,5.4004,3.0595,15.2993,2.3393,17.2793-.7197,1.9805-16.1997,24.2993-17.8198,25.3804-1.6201,1.0805,1.4404,16.9199,1.4404,16.9199s7.0196,13.8608,8.8198,14.58049c1.7998.71881,18.5401-2.34079,18.5401-2.34079s58.1396-15.1191,46.7998-11.5195c-11.3399,3.5986-48.4199,19.4394-48.4199,19.4394l9.8999,44.2803Z" transform="translate(-169.37345 -30.14444)"/><path class="cls-2" d="M337.853,548.54382l180.7207,72,2.8789-.1191,1.8008-72.7803s-5.1602-8.3408-25.0205-8.999a28.98282,28.98282,0,0,0-20.46,7.1387c-6.3594,4.7998-10.2002,9.5996-31.5596-3.3604-21.95991,7.3203-37.2001,12.5996-50.7597,5.8799-13.5606-6.5986-21.7197-12.2393-23.7598-15.8398-6.3603,6.2402-27.0459,14.9707-33.8408,16.08Z" transform="translate(-169.37345 -30.14444)"/><path class="cls-3" d="M772.85294,492.26452c3.5996-1.4404,48.3603-9.7207,48.3603-9.7207l.4795-33c-21.8398-9.2402-42.1201-24.48039-43.6796-25.55949-1.5606-1.0801-2.8799-1.7998-4.2002-1.3194-2.1602,1.0791-2.0401,1.4385-9.2403,5.6397-14.4004,9.95989-37.5595,21.95989-37.5595,21.95989s-.961,48.5996-.8399,68.8799a172.41806,172.41806,0,0,1,30.4795,13.0801c4.4404,2.5195,13.8008,8.7588,16.0811,8.7588,2.2793,0,4.1992-1.5586,6.7197-3.8389,2.8799-2.8808,5.7597-4.9199,14.6396-10.5605,9.8399-5.8799,25.5596-10.92,25.5596-10.92s.4805-7.3193.4805-12.5996c-.3604-4.08-3-3.3603-6.2403-2.6406a75.85839,75.85839,0,0,0-29.4004,13.9209s-12-6.7207-18.9589-10.3213c-5.5205-3.7197-5.4004-4.9189-5.0411-6.5986C761.21235,494.30462,768.77384,493.10442,772.85294,492.26452Zm-12.1191-36.54a5.0201,5.0201,0,0,1,8.0097-4.2305s13.6797,9.2705,15.3897,10.5293c1.7099,1.2617,1.7099,2.791,1.4404,6.4805,0,4.9502-3.4199,4.7705-3.4199,4.7705s-7.9209,1.709-12.96,2.5205c-5.04.8096-7.3808.7197-8.2812-.3613C759.92224,471.92372,760.37244,460.94422,760.73384,455.72452Z" transform="translate(-169.37345 -30.14444)"/><path class="cls-3" d="M748.91344,327.11413c4.21491-.6748,49.9346-10.52931,49.9346-10.52931L798.71235,284.41a149.85076,149.85076,0,0,1-42.70411-25.5615c-1.5596-1.0796-2.3692-2.5039-3.6905-2.0234-2.1601,1.0796-4.9638,2.999-11.8642,7.46969-15.7207,10.169-37.1406,21.44921-37.1406,21.44921s-.2998,48.6006-.1788,68.8799a121.70072,121.70072,0,0,1,29.6387,11.7608c4.4404,2.5195,14.3887,10.6533,16.5606,9.9599a20.66047,20.66047,0,0,0,6.6601-4.2002c2.8799-2.8808,5.9405-4.7392,14.8203-10.3799,9.8399-5.8798,24.419-10.67971,24.419-10.67971s1.02051-12.24019,1.02051-17.51949c0,0-3.10451.8106-6.29981,1.709a93.8861,93.8861,0,0,0-28.3194,14.0098s-13.1406-6.419-19.9814-10.919c-5.5195-3.7207-3.8691-9.0459-3.8691-9.0459S744.83244,327.954,748.91344,327.11413Zm-9.5107-36.81c.9902-4.23,2.8809-4.6792,2.8809-4.6792a24.70833,24.70833,0,0,1,5.1894,1.6802s12.3604,7.2592,14.1602,9.8989c1.1972,1.7549,1.7099,2.79,1.4394,6.4805v4.08s-10.1699,1.8008-15.2099,2.6094c-5.0391.8106-7.3799.7207-8.2793-.3594C738.59314,306.50573,739.04335,295.52433,739.40274,290.30413Z" transform="translate(-169.37345 -30.14444)"/><path class="cls-3" d="M663.29335,393.38473l1.31939,4.6796a73.75639,73.75639,0,0,1,.9599,14.2803c-.2392,8.6406,1.67971,97.80079-.1201,107.27929-1.7998,1.2012-3.4795,3.8418-.96,6.001,2.5206,2.1592,13.7999,6.2402,20.4004,12.1201,2.7608,1.4395,5.8809,4.0791,8.40041,2.8799,2.51959-1.2002,27.59959-26.8809,27.59959-26.8809l-6.8398-6.2402a3.28419,3.28419,0,0,0-3.3594.2402c-1.9209,1.4405-5.2803,3.3604-5.2803,2.5205,0-.8408-.7509-126.62979-.7509-126.62979Z" transform="translate(-169.37345 -30.14444)"/><path class="cls-3" d="M599.81384,405.98433s1.2598,15.8408.89851,16.08c-.35941.2403-6.77831.7207-6.77831.7207s-3.7208-.6005-3.8409,3.1182c-.2392,3.4815-.4804,7.6807,2.0401,8.4023,2.5195.71879,8.7597.71879,8.7597.71879s-.7187,43.4404-.7187,50.041c-.1201,7.5596-1.0801,33.1182-1.92089,36.5996-.23931,1.0791,1.08009,2.7588,2.40039,3.3594s24.3594,11.4014,30.9599,16.9199c.5996.7207,1.92-1.9189,3.3604-2.8799,1.4394-.9589,20.04-18.7187,23.8789-19.7998.8398.1202.9609-2.2802-1.1992-4.08-1.7998-2.0401-2.2803-5.4004-7.0801-3.7198-3.1201,1.919-6.4805,3.2393-7.8008,3.2393-1.4394-.8389-6.5996-3.959-6.5996-3.959V435.744l17.7598-1.32029.8398-12.1191-17.6396-.6006s-.7198-13.6787-.2403-16.3193c.4805-2.6407,1.7998-7.4405,1.7998-7.4405Z" transform="translate(-169.37345 -30.14444)"/><path class="cls-3" d="M642.65274,240.91693a5.04924,5.04924,0,0,0-2.1602,2.227s.0479,11.6924-.1787,12.0606c-1.5312,2.4751-6.3007,2.1601-6.3007,2.1601s-2.9844-.4804-3.1045,3.2388c-.2412,3.481-.4952,8.7759-.4952,8.7759l10.5596.2251s.0596,43.6201.0596,50.2197c.583,22.0498-.9902,29.7002-1.2598,32.9414-.6172,1.8359-1.6816,2.2774-1.9804,3.5098-.2393,1.0791,1.83,2.1894,3.1503,2.7881,1.3204.6005,21.8702,12.2412,29.8799,17.19139.6006.71871,2.791-1.65039,4.2315-2.61039,3.2011-2.1357,19.8896-17.5195,22.73921-20.5791,1.04979-.81051,1.38089-2.85151-.77931-4.6514-1.7998-2.039-3.8105-4.5-7.2002-1.8603-3.1201,1.9199-4.1103,3.001-5.4306,3.001a70.72367,70.72367,0,0,0-6.9893-2.7295l.14941-77.1904,17.30959-.0752-.8555-12.2408-12.8242-.5395s-5.66989.2251-4.3203-12.4649c.2842-2.6679,1.9199-11.79,1.9199-11.79S643.66444,239.81093,642.65274,240.91693Z" transform="translate(-169.37345 -30.14444)"/><path class="cls-3" d="M524.93405,450.09952s.3593-3.4199,3.1044-1.2607c2.6553,2.1601,11.96979,6.9755,27,5.5361,11.6553-1.4854,17.4151-4.5899,23.085-10.6651,4.54491-4.5459,7.1094-8.371,6.6592-9.58589-.4492-1.2148-9.3594-1.7549-13.0938-1.8447a52.975,52.975,0,0,1-32.4902-10.125c-10.89059,4.6797-29.02539,12.60059-42.38959,13.99609-4.8604.8545-7.2911.4502-7.6055,3.7344-.3154,3.2851-.8106,38.6992,1.6191,47.25.1817,2.1591,4.5,2.249,6.751,2.1591,2.25-.0888,52.64939,1.8907,52.64939,1.8907s.4502,15.8408-.0898,17.8203c-.5401,1.9804-.9903,4.4091-6.21,3.0595-5.2197-1.3505-19.71-10.5293-38.70019-3.6894-17.0996,7.1103-21.6904,18-21.7793,21.7793,0,0,26.9092-3.2393,39.1494,4.8603,8.7295,4.8604,11.1602,6.9297,12.6895,6.3008,1.53029-.6308,18.27049-13.0508,34.11029-16.3808,15.8399-3.3301,16.6495-4.0508,16.8301-5.0401.1807-.9902-.3594-42.3906-.3594-42.3906s-.2568-3.7168-5.1308-4.2295c-5.1299-.54-56.33889-1.8008-56.33889-1.8008Z" transform="translate(-169.37345 -30.14444)"/><path class="cls-3" d="M474.77385,510.98522s-.4209-64.6806-.541-69.7207c-.1201-5.04-3.4795-4.9209-3.4795-4.9209s-41.09962-11.15909-48.12013-13.56049c-3,4.081-39,28.02149-41.33987,29.28119-2.3398,1.2598-9.2402,4.0196-10.3799,6.42-1.1406,2.3994,5.6397,3.9004,15,3.6601,9.6006-.1797,21.5391-8.4599,23.8204-10.0801,2.2802-1.6211,6.2998-4.08,6.2998-4.08s19.43941,5.8798,22.5595,7.5c.2998,3.1191-1.18844,10.5937-1.18844,10.5937s-4.15137.5059-20.59176,1.2266c-49.0801,6.3593-46.5596,38.6406-46.5596,42.3603,0,3.7188-.8399,4.9199-2.1602,6.2393-45.1201,9.2402-73.5595-14.4004-83.3999-30.2403-9.8398-15.8388-14.1601-40.9199,3-64.08,17.1597-23.1602,45.8999-19.92,50.6402-19.7989,4.6797,0,8.8798.29979,9.9004,2.0391a22.53673,22.53673,0,0,1,1.2597,6.96c-.7207,25.20109,13.5723,34.56049,14.6514,34.56049,1.081,0,6.2402-6.8398,10.8008-15.72069,5.4004-7.9199,11.6269-17.8789,19.8476-25.3799-10.6211-11.70021-49.1406-19.9795-86.7602-17.0996-37.6197,2.8799-78.6597,34.3799-76.3203,79.91989,2.3403,45.5401,45.3003,63.7207,45.3003,63.7207,55.9199,26.5205,92.4599-9.2412,93.4199-10.7402.9599-1.5,1.4404-1.4394,1.4404-1.4394s10.7998,10.4394,15.4795,14.2187c4.6807,3.7803,16.3203,8.46,22.7998,9.3604,8.21973-.0606,29.1602-8.2207,35.4609-11.2198,3.5996,2.2198,17.2198,8.9395,22.7989,10.8594,2.58-1.6797,16.4404-23.3398,16.4404-23.3398C483.894,515.54292,474.77385,510.98522,474.77385,510.98522Zm-39.001,2.459c-.7793,3.1797-2.51953,4.3194-5.75879,4.5-3.06055-.0605-8.40039.1797-10.56152-.7793-2.15921-.9609-7.85941-5.9404-8.999-8.1601-.9004-1.0811-1.2598-3-1.2002-5.3399.0605-2.3408.5996-10.5605,1.7998-12.7802,1.3809-2.3409,6.8398-12.5411,25.31933-11.5196C436.37248,479.36512,436.19377,508.40422,435.77287,513.44422Z" transform="translate(-169.37345 -30.14444)"/><path class="cls-3" d="M590.09314,256.46423l-16.5605,23.7608s-.23929,3.1201,11.2803,7.6792c0,20.5205-.4795,65.2803-.4795,65.2803a17.90729,17.90729,0,0,1-1.8008,4.9209c-1.0791,1.5585-3.5996,3.5996-.1192,5.5185,3.4795,1.91989,19.3194,12.96,19.3194,12.96l23.041-15a30.6438,30.6438,0,0,1-1.6816-3.7198c-.2393-.9599-2.1592-36.6005-1.0791-55.56,0-18.2402-.96-29.0396-.96-29.0396s-.6006-3.1201-2.5195-3.8403C616.61364,268.705,590.09314,256.46423,590.09314,256.46423Z" transform="translate(-169.37345 -30.14444)"/><path class="cls-3" d="M465.893,226.76363l38.25-9.2686-.7197,46.8897s0,4.8603,4.4102,2.15909c4.4101-2.69919,18.4492-13.58929,21.7793-12.86909,3.331.7197,9.36029,6.12009,15.66009,12.5093,7.7412,6.3906,16.4707,13.4101,18.4512,13.4101.2695,9.541.2695,76.8599-1.3516,86.0406-1.5293,9.6298-3.86909,15.9296-13.3193,25.9199-9.4492,9.99019-28.16989,15.4804-34.01949,14.8496-1.4405,0-1.9805-.0908-1.2598-1.6201.7197-1.53031,9.0889-11.6094,11.4297-20.7002a104.8683,104.8683,0,0,0,2.5195-19.3487c.0899-3.4209-.0898-73.1709-.0898-73.1709s-9.1797-7.02-11.1592-7.4702a7.91415,7.91415,0,0,0-6.6611,1.98c-2.0694,1.7998-6.5704,5.2202-6.5704,5.2202s-.0898,51.8394.7198,57.7798a16.1011,16.1011,0,0,0,2.8808,8.7305s.8096,2.249-.3593,3.23919c-1.17.99031-20.5206,15.751-20.5206,15.751l-21.4199-15.12009s-2.0703-1.3496-.541-4.1406a10.45848,10.45848,0,0,0,1.7119-4.9502C465.893,351.23433,465.893,226.76363,465.893,226.76363Z" transform="translate(-169.37345 -30.14444)"/><path class="cls-3" d="M399.41345,245.06433l10.0206,5.9996-.6006,87.9604s-.4805,8.9404-5.2803,5.04c-4.8594-3.9004-15.8399-13.4404-15.8399-13.4404s0-61.9189.3594-72.0596c.1201-10.4389.7207-19.6796,1.2002-21.1201.4795-1.4399,1.2608-3.1201.5401-3.3003-.7198-.1792-28.7403-13.4389-29.9405-14.3999-1.5,1.02-17.9384,20.1607-19.0195,23.9395-.5391.9609,4.0205,4.6211,9.8408,5.7612-.1806,12.2988.1797,89.1597.1797,89.1597l-15.2998,7.9209s-3.7207,2.2793-4.0801-2.041c-.3603-4.3204-.7803-120.2403-.7803-120.2403s-28.9804-4.1396-35.9404-2.9389c-5.8794.4795-20.04,3.1191-23.6396,20.04a10.6236,10.6236,0,0,0,7.29,10.709c2.25.9004,3.3301-.71931,3.69-4.8604.3603-4.1396,3.2402-6.8388,11.6098-2.8794,0,20.4307-1.0801,99.4502-1.0801,99.4502s-28.5297,9.98929-27.27,35.5498c0,0,.7202.9004,2.4307-.6298,1.7095-1.5293,13.4096-8.2803,23.3096-9.0899,7.02-.09081,13.3198,2.0693,22.0498,6.8389,13.0502-6.6592,41.7602-21.4199,41.7602-21.4199s11.1602,7.6503,15.75,11.3408c4.5899,3.68939,13.3203,10.2597,13.3203,10.2597a5.96927,5.96927,0,0,0,2.6094-1.1699c1.2607-.9902,10.7998-6.9306,24.75-12.9599,13.59082-5.0401,22.59082-7.8301,33.2109-9.9903,2.4297-.45021,3.1494-1.9795,2.1592-4.2295-.8096-3.6006-.7197-13.4101-.9004-17.8193-.1797-4.4102.7207-97.2017.7207-97.2017a175.20724,175.20724,0,0,1-28.7109-13.5893c-8.46,10.4399-10.3486,13.0498-12.6895,15.9302C402.80315,238.46473,399.41345,245.06433,399.41345,245.06433Z" transform="translate(-169.37345 -30.14444)"/><path class="cls-4" d="M837.59314,509.13952a8.897,8.897,0,1,1,8.71-8.8945,8.81433,8.81433,0,0,1-8.71,8.8945Zm0-15.7275a6.87678,6.87678,0,1,0,6.666,6.873,6.77854,6.77854,0,0,0-6.666-6.873Z" transform="translate(-169.37345 -30.14444)"/><path class="cls-4" d="M819.29335,437.66492l18.60059-115.32029a101.45372,101.45372,0,0,0-15.8408-7.4394c-7.3799-2.60941-12.4805-4.6807-12.4805-4.6807l-.6299-11.3999,54.751,14.0395.59961-1.85931,5.39939-25.26079a46.14579,46.14579,0,0,0-4.2285-2.9995c-2.0713-1.26071-17.1308-7.5596-17.1308-7.5596l.3603-4.2006,4.0791-27.1192s-15.8388-9.6001-26.6396-15.84031c-10.7998-6.24019-24.1201-13.92089-29.6407-16.80029,0,0,0,42-1.3193,42.7197-5.2803-2.2798-47.1601-20.7597-47.1601-20.7597l-.2393-23.1592-.7207-29.6406-68.8496-42.3604-1.5899,64.4399L627.29335,181.225l-1.31931-76.0806-90.96089-52.7402-.045,191.3252-13.29-.0459-1.9053-191.459L429.893,105.14443l-1.32032,76.0806-49.31932,21.2392-.3604-60.9599s-.7207-4.7993-1.6797-3.48c-.9599,1.3193-69.2402,43.0796-69.2402,43.0796l.1201,28.9214a93.02086,93.02086,0,0,0-23.7597,2.8789c-12.2403,3.2402-20.3999,15.9604-22.5601,21.9599-2.4004-13.6801-.1201-18.8408-1.4399-23.7592-5.5201,2.8803-19.8003,10.6797-30.6001,16.91989s-25.3199,15.71921-25.3199,15.71921-2.3999,1.0796-1.2002,5.0396c1.2002,3.9604,3.9605,22.2007,3.9605,22.2007s1.3198,2.3999-1.5601,4.4404c-2.8808,2.0395-13.1406,6.05909-15.2104,7.3198-2.0698,1.2588-4.3198,2.249-3.69,5.4004.6299,3.1494,4.8599,22.85989,4.8599,22.85989s.6304,3.14941,4.3198,2.16011c3.6905-.9912,63.7203-16.56,63.7203-16.56s2.4296-.0909,2.4296,3.5097c0,3.6001-.4497,5.9409-2.6997,6.93019-2.2495.99021-19.08,6.57031-26.4599,9.17871-7.4698,2.5205-15.3902,5.9404-15.3902,5.9404l13.8604,81.4512s3.6894,13.2295,1.8901,17.5488c-1.8003,4.3204-3.3305,6.3008-5.9404,12.6915-2.0703,5.21869-2.8799,6.29779-2.8799,6.29779l-20.0098-105.32909-24.1201-9-10.9199-51.479,20.7598-9.2407a79.72167,79.72167,0,0,0-1.92-19.3198c-1.08-7.0801-.2397-11.1602-.2397-11.1602l72.1196-41.9995,33.2403,12.7187.5996-33.83981,85.4394-53.39889,34.9209,26.039.5996-47.9995,111.8399-66,29.04,15.83989,85.2002,50.1601,1.5908,48.1797,33.47951-26.2798L761.934,171.50382l.1191,33.96091,34.4394-12.4804,70.6807,41.6401s3.4795,1.98,2.0996,5.0991c-6.4189,25.9805-3.539,25.3809-3.539,25.3809l21.4794,10.3203-11.6396,50.3994-13.8008,5.4004s-6.5127,1.9521-8.6406,4.0801a11.91089,11.91089,0,0,0-2.583,4.28319l-19.25589,104.7969Z" transform="translate(-169.37345 -30.14444)"/><path class="cls-4" d="M204.65325,519.98432l31.4404-8.1592s37.5596,50.2793,106.4087,35.8789l75.2705,31.3213s86.1612,35.7597,103.4404,38.8799c-.7207-46.3204.4805-72.96.4805-72.96s6.4795,6.7187,11.0391,5.6387c1.081.2402,1.6806,1.9209,1.6806,6.8398,0,4.9219.5997,61.082.5997,61.082s39.59959-13.3818,59.75969-21.8418c21.4209-8.4599,107.6397-44.8193,107.6397-44.8193l40.3203-16.0195s14.04,7.7988,17.041,10.1992c2.999,2.4004,11.6396,6.96,17.04,4.7998,5.3994-2.1602,12.8399-9.7197,18.8389-13.5596,6.001-3.8408,18.60161-9.2402,23.7607-11.1601,4.92-1.9199,7.0801-3.2403,8.3995-6.4805a36.16186,36.16186,0,0,1,2.2802-4.7998s19.5606,4.3203,20.2793,6.6006l-8.039,24.959s-86.4004,26.8808-112.3194,34.8008c-26.1611,7.9199-200.63959,61.9189-200.63959,61.9189l-112.5606-34.0791L260.334,561.26452l-42.7198-13.9199s-3.1206.5996-5.2812-6C210.17325,534.744,204.65325,519.98432,204.65325,519.98432Z" transform="translate(-169.37345 -30.14444)"/><path class="cls-4" d="M833.54635,504.87782v-8.9785h4.08489a5.25992,5.25992,0,0,1,1.7354.2207,1.88223,1.88223,0,0,1,.96871.8174,2.7233,2.7233,0,0,1,.36819,1.4541,2.765,2.765,0,0,1-.28219,1.289,2.36224,2.36224,0,0,1-.77351.879,2.76517,2.76517,0,0,1-.8613.3554,2.3241,2.3241,0,0,1,.6377.3301,2.7636,2.7636,0,0,1,.3935.4736,3.77638,3.77638,0,0,1,.3428.5577l1.1856,2.6015h-2.7676l-1.3106-2.7451a2.09386,2.09386,0,0,0-.4433-.6914.94836.94836,0,0,0-.6006-.209h-.2158v3.6455Zm2.46189-5.3418h1.0332a3.17218,3.17218,0,0,0,.6484-.1221.63874.63874,0,0,0,.39751-.2812.89928.89928,0,0,0,.15429-.5195.88427.88427,0,0,0-.2432-.669,1.34707,1.34707,0,0,0-.91409-.2314h-1.07611Z" transform="translate(-169.37345 -30.14444)"/><path class="cls-2" d="M564.83344,226.28413s1.1386,1.7998,5.5195,3.2402c4.3799,1.439,21.89941,10.98,25.3203,13.6196,2.7598,1.7403,5.999,3.3003,9.959.6607,4.3516-3.1807,24.9619-17.28081,27.7207-18.8399,0,0-22.0195-11.7612-27.6602-15.4804-4.7998-3.47951-7.7392-5.5806-7.7392-5.5806s-22.1416,15.2397-25.2608,17.3408C569.57264,223.34463,564.59414,225.20453,564.83344,226.28413Z" transform="translate(-169.37345 -30.14444)"/></svg>